<?xml version="1.0" encoding="utf-8"?>
<!-- Generator: Adobe Illustrator 21.1.0, SVG Export Plug-In . SVG Version: 6.00 Build 0)  -->
<svg version="1.1" id="Layer_1" xmlns="http://www.w3.org/2000/svg" xmlns:xlink="http://www.w3.org/1999/xlink" x="0px" y="0px"
	 viewBox="0 0 2500 2500" style="enable-background:new 0 0 2500 2500;" xml:space="preserve">
<style type="text/css">
	.st0{fill:#FFFFFF;}
</style>
<g id="_x38_0-mark-white">
	<path id="mark_28_" class="st0" d="M831.2,0L0,481.2v1100C0,2087.5,406.2,2500,912.5,2500c168.8,0,325-43.8,462.5-118.8l675-387.5
		c268.8-143.7,450-418.7,450-743.7V100L2337.5,6.2L1625,387.5v1200c0,50-6.2,100-12.5,150c-12.5,50-25,93.8-43.8,137.5l-18.7,37.5
		c-25,0-181.2-56.2-262.5-112.5c-37.5-25-68.8-50-100-81.2s-56.2-62.5-81.2-100c-25-37.5-43.8-75-62.5-112.5
		c-18.7-37.5-31.2-81.2-37.5-125c-6.2-43.8-6.2-87.5-6.2-131.2V100L831.2,0z M1237.5,2262.5c-43.8,18.8-106.3,43.8-156.2,56.3
		c-50,12.5-93.8,12.5-143.8,12.5s-100-6.2-150-18.8c-50-12.5-93.8-25-137.5-43.8c-43.8-18.8-87.5-43.8-125-68.8
		c-112.5-68.8-168.7-131.3-212.5-200c-25-37.5-50-81.2-68.8-125s-31.2-93.8-43.8-143.8c-12.5-50-12.5-100-12.5-150V575l625-381.2
		V1250c0,400,293.8,737.5,668.8,818.8c-12.5,18.7-25,37.5-43.8,50C1368.8,2187.5,1312.5,2231.2,1237.5,2262.5L1237.5,2262.5z
		 M2300,1387.5c-6.2,43.8-25,87.5-37.5,125c-18.8,37.5-37.5,75-62.5,112.5c-25,37.5-100,131.2-200,187.5
		c-100,56.2-193.8,75-250,87.5c37.5-100,62.5-200,62.5-312.5V481.2l500-287.5V1250C2312.5,1300,2312.5,1343.8,2300,1387.5z"/>
</g>
</svg>
